<?xml version="1.0" encoding="utf-8" standalone="yes"?>
<!DOCTYPE svg PUBLIC "-//W3C//DTD SVG 1.1//EN" "http://www.w3.org/Graphics/SVG/1.1/DTD/svg11.dtd">
<svg style="fill:none;stroke:none;fill-rule:evenodd;clip-rule:evenodd;stroke-linecap:round;stroke-linejoin:round;stroke-miterlimit:1.5;" version="1.1" xmlns="http://www.w3.org/2000/svg" xmlns:xlink="http://www.w3.org/1999/xlink" width="816" height="601" viewBox="0 0 816 601"><style class="text-font-style fontImports" data-font-family="Roboto">@import url(https://fonts.googleapis.com/css2?family=Roboto:wght@400;700&amp;amp;display=block);</style><g id="items" style="isolation: isolate"><g id="blend" style="mix-blend-mode: normal"><g id="g-root-cp_1-1_g-1-1_diky36sdb407-fill" data-item-order="-387054" transform="translate(44, 122.010498046875)"><g id="cp_1-1_g-1-1_diky36sdb407-fill-merged" stroke="none" fill="#5c4938" fill-opacity="1"><g><path d="M10 40C10 43.314 12.686 46 16 46 H136C139.314 46 142 43.314 142 40 V16C142 12.686 139.314 10 136 10 H16C12.686 10 10 12.686 10 16 V40"></path></g></g></g><g id="g-root-cp_1-2_g-1-2_74fpusdb5l4-fill" data-item-order="-387032" transform="translate(68, 170.010498046875)"><g id="cp_1-2_g-1-2_74fpusdb5l4-fill-merged" stroke="none" fill="#5c4938" fill-opacity="1"><g><path d="M10 40C10 43.314 12.686 46 16 46 H112C115.314 46 118 43.314 118 40 V16C118 12.686 115.314 10 112 10 H16C12.686 10 10 12.686 10 16 V40"></path></g></g></g><g id="g-root-cp_1-3_g-1-3_1ut1gnmsdb30h-fill" data-item-order="-387010" transform="translate(32, 218.010498046875)"><g id="cp_1-3_g-1-3_1ut1gnmsdb30h-fill-merged" stroke="none" fill="#5c4938" fill-opacity="1"><g><path d="M10 40C10 43.314 12.686 46 16 46 H148C151.314 46 154 43.314 154 40 V16C154 12.686 151.314 10 148 10 H16C12.686 10 10 12.686 10 16 V40"></path></g></g></g><g id="g-root-cp_1-4_g-1-4_1hhkyaasdb4le-fill" data-item-order="-386988" transform="translate(44, 266.010498046875)"><g id="cp_1-4_g-1-4_1hhkyaasdb4le-fill-merged" stroke="none" fill="#5c4938" fill-opacity="1"><g><path d="M10 40C10 43.314 12.686 46 16 46 H136C139.314 46 142 43.314 142 40 V16C142 12.686 139.314 10 136 10 H16C12.686 10 10 12.686 10 16 V40"></path></g></g></g><g id="g-root-cp_1-5_g-1-5_146qx02sdb30j-fill" data-item-order="-386966" transform="translate(68, 314.01055908203125)"><g id="cp_1-5_g-1-5_146qx02sdb30j-fill-merged" stroke="none" fill="#5c4938" fill-opacity="1"><g><path d="M10 40C10 43.314 12.686 46 16 46 H112C115.314 46 118 43.314 118 40 V16C118 12.686 115.314 10 112 10 H16C12.686 10 10 12.686 10 16 V40"></path></g></g></g><g id="g-root-cp_1-6_g-1-6_qvaemqsdb4lg-fill" data-item-order="-386944" transform="translate(68, 362.01055908203125)"><g id="cp_1-6_g-1-6_qvaemqsdb4lg-fill-merged" stroke="none" fill="#5c4938" fill-opacity="1"><g><path d="M10 40C10 43.314 12.686 46 16 46 H112C115.314 46 118 43.314 118 40 V16C118 12.686 115.314 10 112 10 H16C12.686 10 10 12.686 10 16 V40"></path></g></g></g><g id="g-root-cp_1-7_g-1-7_hznedusdb5e5-fill" data-item-order="-386922" transform="translate(68, 410.01055908203125)"><g id="cp_1-7_g-1-7_hznedusdb5e5-fill-merged" stroke="none" fill="#5c4938" fill-opacity="1"><g><path d="M10 52C10 55.314 12.686 58 16 58 H112C115.314 58 118 55.314 118 52 V16C118 12.686 115.314 10 112 10 H16C12.686 10 10 12.686 10 16 V52"></path></g></g></g><g id="g-root-cp_1-8_g-1-8_4otd3msdb3ta-fill" data-item-order="-386900" transform="translate(56, 470.01055908203125)"><g id="cp_1-8_g-1-8_4otd3msdb3ta-fill-merged" stroke="none" fill="#5c4938" fill-opacity="1"><g><path d="M10 40C10 43.314 12.686 46 16 46 H124C127.314 46 130 43.314 130 40 V16C130 12.686 127.314 10 124 10 H16C12.686 10 10 12.686 10 16 V40"></path></g></g></g><g id="g-root-cp_1_g-1_8zuz6sdb4lj-fill" data-item-order="-386876" transform="translate(200, 292.0072021484375)"><g id="cp_1_g-1_8zuz6sdb4lj-fill-merged" stroke="none" fill="#5c4938" fill-opacity="1"><g><path d="M10 46C10 50.418 13.582 54 18 54 H94C98.418 54 102 50.418 102 46 V18C102 13.582 98.418 10 94 10 H18C13.582 10 10 13.582 10 18 V46"></path></g></g></g><g id="g-root-cp_start_g-start_1uuaetusdb56o-fill" data-item-order="-386850" transform="translate(316, 278.0072021484375)"><g id="cp_start_g-start_1uuaetusdb56o-fill-merged" stroke="none" fill="#545454" fill-opacity="1"><g><path d="M10 21C10 14.925 14.925 10 21 10 H151C157.075 10 162 14.925 162 21 V71C162 77.075 157.075 82 151 82 H21C14.925 82 10 77.075 10 71 V21"></path></g></g></g><g id="g-root-cp_2_g-2_1lz9vo2sdb2tl-fill" data-item-order="-386818" transform="translate(492, 292.0072021484375)"><g id="cp_2_g-2_1lz9vo2sdb2tl-fill-merged" stroke="none" fill="#68403f" fill-opacity="1"><g><path d="M10 46C10 50.418 13.582 54 18 54 H106C110.418 54 114 50.418 114 46 V18C114 13.582 110.418 10 106 10 H18C13.582 10 10 13.582 10 18 V46"></path></g></g></g><g id="g-root-cp_2-1_g-2-1_1hjgdjmsdb3lu-fill" data-item-order="-386792" transform="translate(620, 128.010498046875)"><g id="cp_2-1_g-2-1_1hjgdjmsdb3lu-fill-merged" stroke="none" fill="#68403f" fill-opacity="1"><g><path d="M10 40C10 43.314 12.686 46 16 46 H100C103.314 46 106 43.314 106 40 V16C106 12.686 103.314 10 100 10 H16C12.686 10 10 12.686 10 16 V40"></path></g></g></g><g id="g-root-cp_2-2_g-2-2_18ntdaqsdb4ej-fill" data-item-order="-386770" transform="translate(620, 176.010498046875)"><g id="cp_2-2_g-2-2_18ntdaqsdb4ej-fill-merged" stroke="none" fill="#68403f" fill-opacity="1"><g><path d="M10 40C10 43.314 12.686 46 16 46 H148C151.314 46 154 43.314 154 40 V16C154 12.686 151.314 10 148 10 H16C12.686 10 10 12.686 10 16 V40"></path></g></g></g><g id="g-root-cp_2-3_g-2-3_v2ztsiscq0b0-fill" data-item-order="-386748" transform="translate(620, 224.010498046875)"><g id="cp_2-3_g-2-3_v2ztsiscq0b0-fill-merged" stroke="none" fill="#68403f" fill-opacity="1"><g><path d="M10 40C10 43.314 12.686 46 16 46 H148C151.314 46 154 43.314 154 40 V16C154 12.686 151.314 10 148 10 H16C12.686 10 10 12.686 10 16 V40"></path></g></g></g><g id="g-root-cp_2-4_g-2-4_qn6bo2scq139-fill" data-item-order="-386726" transform="translate(620, 272.010498046875)"><g id="cp_2-4_g-2-4_qn6bo2scq139-fill-merged" stroke="none" fill="#68403f" fill-opacity="1"><g><path d="M10 40C10 43.314 12.686 46 16 46 H124C127.314 46 130 43.314 130 40 V16C130 12.686 127.314 10 124 10 H16C12.686 10 10 12.686 10 16 V40"></path></g></g></g><g id="g-root-cp_2-5_g-2-5_hrjbf6scq1vy-fill" data-item-order="-386704" transform="translate(620, 320.01055908203125)"><g id="cp_2-5_g-2-5_hrjbf6scq1vy-fill-merged" stroke="none" fill="#68403f" fill-opacity="1"><g><path d="M10 40C10 43.314 12.686 46 16 46 H136C139.314 46 142 43.314 142 40 V16C142 12.686 139.314 10 136 10 H16C12.686 10 10 12.686 10 16 V40"></path></g></g></g><g id="g-root-cp_2-6_g-2-6_4gpa4yscq0b3-fill" data-item-order="-386682" transform="translate(620, 368.01055908203125)"><g id="cp_2-6_g-2-6_4gpa4yscq0b3-fill-merged" stroke="none" fill="#68403f" fill-opacity="1"><g><path d="M10 40C10 43.314 12.686 46 16 46 H148C151.314 46 154 43.314 154 40 V16C154 12.686 151.314 10 148 10 H16C12.686 10 10 12.686 10 16 V40"></path></g></g></g><g id="g-root-cp_2-7_g-2-7_1lqjbmascq2h4-fill" data-item-order="-386660" transform="translate(620, 416.01055908203125)"><g id="cp_2-7_g-2-7_1lqjbmascq2h4-fill-merged" stroke="none" fill="#68403f" fill-opacity="1"><g><path d="M10 40C10 43.314 12.686 46 16 46 H136C139.314 46 142 43.314 142 40 V16C142 12.686 139.314 10 136 10 H16C12.686 10 10 12.686 10 16 V40"></path></g></g></g><g id="g-root-cp_2-8_g-2-8_1hapthuscq39d-fill" data-item-order="-386638" transform="translate(620, 464.01055908203125)"><g id="cp_2-8_g-2-8_1hapthuscq39d-fill-merged" stroke="none" fill="#68403f" fill-opacity="1"><g><path d="M10 40C10 43.314 12.686 46 16 46 H136C139.314 46 142 43.314 142 40 V16C142 12.686 139.314 10 136 10 H16C12.686 10 10 12.686 10 16 V40"></path></g></g></g><g id="g-root-he_18fpac2scq0wb-fill" data-item-order="-386611" transform="translate(286, 314.01055908203125)"></g><g id="g-root-he_18fpac2scq0wd-fill" data-item-order="-386609" transform="translate(462, 314.01055908203125)"></g><g id="g-root-he_13zvs7mscq1on-fill" data-item-order="-386607" transform="translate(170, 140.010498046875)"></g><g id="g-root-he_13zvs7mscq1op-fill" data-item-order="-386605" transform="translate(590, 146.010498046875)"></g><g id="g-root-tx_skillexc_1ha3ceqsd89vu-fill" data-item-order="0" transform="translate(344, 296.0072021484375)"><g id="tx_skillexc_1ha3ceqsd89vu-fill-merged" stroke="none" fill="#2c2c2c" fill-opacity="1"><g><text style="font: bold 11.7px Roboto, sans-serif; white-space: pre;" font-weight="bold" font-size="11.7px" font-family="Roboto, sans-serif"><tspan x="15.09" y="26.8" dominant-baseline="ideographic">Skill Exchange </tspan><tspan x="32.66" y="40.8" dominant-baseline="ideographic">Platform</tspan></text></g></g></g><g id="g-root-tx_adminflo_dfgntesd8cna-fill" data-item-order="0" transform="translate(508, 302.0072021484375)"><g id="tx_adminflo_dfgntesd8cna-fill-merged" stroke="none" fill="#fb6762" fill-opacity="1"><g><text style="font: 11.7px Roboto, sans-serif; white-space: pre;" font-size="11.7px" font-family="Roboto, sans-serif"><tspan x="12" y="27.8" dominant-baseline="ideographic">Admin Flow</tspan></text></g></g></g><g id="g-root-tx_userflow_zpojv6sd6wi0-fill" data-item-order="0" transform="translate(216, 302.0072021484375)"><g id="tx_userflow_zpojv6sd6wi0-fill-merged" stroke="none" fill="#f79438" fill-opacity="1"><g><text style="font: 11.7px Roboto, sans-serif; white-space: pre;" font-size="11.7px" font-family="Roboto, sans-serif"><tspan x="16.54" y="28.6" dominant-baseline="ideographic">User Flow</tspan></text></g></g></g><g id="g-root-tx_swaprequ_91ikyasd5jbc-fill" data-item-order="0" transform="translate(80, 320.01055908203125)"><g id="tx_swaprequ_91ikyasd5jbc-fill-merged" stroke="none" fill="#f79438" fill-opacity="1"><g><text style="font: 11.7px Roboto, sans-serif; white-space: pre;" font-size="11.7px" font-family="Roboto, sans-serif"><tspan x="17.86" y="28.6" dominant-baseline="ideographic">Swap Request</tspan></text></g></g></g><g id="g-root-tx_handlere_zmk6fmsd9og1-fill" data-item-order="0" transform="translate(632, 278.010498046875)"><g id="tx_handlere_zmk6fmsd9og1-fill-merged" stroke="none" fill="#fb6762" fill-opacity="1"><g><text style="font: 11.7px Roboto, sans-serif; white-space: pre;" font-size="11.7px" font-family="Roboto, sans-serif"><tspan x="12" y="27.8" dominant-baseline="ideographic">Handle Reports</tspan></text></g></g></g><g id="g-root-tx_skillmat_zmk6fmsd5h54-fill" data-item-order="0" transform="translate(56, 272.010498046875)"><g id="tx_skillmat_zmk6fmsd5h54-fill-merged" stroke="none" fill="#f79438" fill-opacity="1"><g><text style="font: 11.7px Roboto, sans-serif; white-space: pre;" font-size="11.7px" font-family="Roboto, sans-serif"><tspan x="20.31" y="28.6" dominant-baseline="ideographic">Skill Matchmaking</tspan></text></g></g></g><g id="g-root-tx_approver_qn6bo2sd9r7z-fill" data-item-order="0" transform="translate(632, 230.010498046875)"><g id="tx_approver_qn6bo2sd9r7z-fill-merged" stroke="none" fill="#fb6762" fill-opacity="1"><g><text style="font: 11.7px Roboto, sans-serif; white-space: pre;" font-size="11.7px" font-family="Roboto, sans-serif"><tspan x="12" y="28.6" dominant-baseline="ideographic">Approve/Reject Skills</tspan></text></g></g></g><g id="g-root-tx_banrestr_145i1zmsd9oub-fill" data-item-order="0" transform="translate(632, 326.01055908203125)"><g id="tx_banrestr_145i1zmsd9oub-fill-merged" stroke="none" fill="#fb6762" fill-opacity="1"><g><text style="font: 11.7px Roboto, sans-serif; white-space: pre;" font-size="11.7px" font-family="Roboto, sans-serif"><tspan x="12" y="27.8" dominant-baseline="ideographic">Ban/Restrict Users</tspan></text></g></g></g><g id="g-root-tx_browsese_8wis9esd5j4f-fill" data-item-order="0" transform="translate(44, 224.010498046875)"><g id="tx_browsese_8wis9esd5j4f-fill-merged" stroke="none" fill="#f79438" fill-opacity="1"><g><text style="font: 11.7px Roboto, sans-serif; white-space: pre;" font-size="11.7px" font-family="Roboto, sans-serif"><tspan x="18.06" y="28.6" dominant-baseline="ideographic">Browse/Search Skills</tspan></text></g></g></g><g id="g-root-tx_realtime_1hi7ij6sd5i4n-fill" data-item-order="0" transform="translate(80, 368.01055908203125)"><g id="tx_realtime_1hi7ij6sd5i4n-fill-merged" stroke="none" fill="#f79438" fill-opacity="1"><g><text style="font: 11.7px Roboto, sans-serif; white-space: pre;" font-size="11.7px" font-family="Roboto, sans-serif"><tspan x="15.88" y="28.6" dominant-baseline="ideographic">Real-time Chat</tspan></text></g></g></g><g id="g-root-tx_monitoru_vbqh02sd8agz-fill" data-item-order="0" transform="translate(632, 182.010498046875)"><g id="tx_monitoru_vbqh02sd8agz-fill-merged" stroke="none" fill="#fb6762" fill-opacity="1"><g><text style="font: 11.7px Roboto, sans-serif; white-space: pre;" font-size="11.7px" font-family="Roboto, sans-serif"><tspan x="12" y="27.8" dominant-baseline="ideographic">Monitor Users &amp; Skills</tspan></text></g></g></g><g id="g-root-tx_trackswa_qvwyvmsd9pfk-fill" data-item-order="0" transform="translate(632, 374.01055908203125)"><g id="tx_trackswa_qvwyvmsd9pfk-fill-merged" stroke="none" fill="#fb6762" fill-opacity="1"><g><text style="font: 11.7px Roboto, sans-serif; white-space: pre;" font-size="11.7px" font-family="Roboto, sans-serif"><tspan x="12" y="27.8" dominant-baseline="ideographic">Track Swap Requests</tspan></text></g></g></g><g id="g-root-tx_profilec_dl2xlesd42df-fill" data-item-order="0" transform="translate(80, 176.010498046875)"><g id="tx_profilec_dl2xlesd42df-fill-merged" stroke="none" fill="#f79438" fill-opacity="1"><g><text style="font: 11.7px Roboto, sans-serif; white-space: pre;" font-size="11.7px" font-family="Roboto, sans-serif"><tspan x="11.84" y="28.6" dominant-baseline="ideographic">Profile Creation</tspan></text></g></g></g><g id="g-root-tx_skillexc_1lr5spesd6x3d-fill" data-item-order="0" transform="translate(80, 416.01055908203125)"><g id="tx_skillexc_1lr5spesd6x3d-fill-merged" stroke="none" fill="#f79438" fill-opacity="1"><g><text style="font: 11.7px Roboto, sans-serif; white-space: pre;" font-size="11.7px" font-family="Roboto, sans-serif"><tspan x="17.2" y="27.6" dominant-baseline="ideographic">Skill Exchange </tspan><tspan x="50.8" y="41.6" dominant-baseline="ideographic">Session</tspan></text></g></g></g><g id="g-root-tx_adminlog_dhc32qsd8bnm-fill" data-item-order="0" transform="translate(632, 134.010498046875)"><g id="tx_adminlog_dhc32qsd8bnm-fill-merged" stroke="none" fill="#fb6762" fill-opacity="1"><g><text style="font: 11.7px Roboto, sans-serif; white-space: pre;" font-size="11.7px" font-family="Roboto, sans-serif"><tspan x="12" y="27.8" dominant-baseline="ideographic">Admin Login</tspan></text></g></g></g><g id="g-root-tx_sendnoti_zkor6asdb3m2-fill" data-item-order="0" transform="translate(632, 422.01055908203125)"><g id="tx_sendnoti_zkor6asdb3m2-fill-merged" stroke="none" fill="#fb6762" fill-opacity="1"><g><text style="font: 11.7px Roboto, sans-serif; white-space: pre;" font-size="11.7px" font-family="Roboto, sans-serif"><tspan x="12" y="27.8" dominant-baseline="ideographic">Send Notifications</tspan></text></g></g></g><g id="g-root-tx_generate_141r7gysdb4zy-fill" data-item-order="0" transform="translate(632, 470.01055908203125)"><g id="tx_generate_141r7gysdb4zy-fill-merged" stroke="none" fill="#fb6762" fill-opacity="1"><g><text style="font: 11.7px Roboto, sans-serif; white-space: pre;" font-size="11.7px" font-family="Roboto, sans-serif"><tspan x="12" y="27.8" dominant-baseline="ideographic">Generate Reports</tspan></text></g></g></g><g id="g-root-tx_reviewra_18hkplesd6xom-fill" data-item-order="0" transform="translate(68, 476.01055908203125)"><g id="tx_reviewra_18hkplesd6xom-fill-merged" stroke="none" fill="#f79438" fill-opacity="1"><g><text style="font: 11.7px Roboto, sans-serif; white-space: pre;" font-size="11.7px" font-family="Roboto, sans-serif"><tspan x="20.81" y="28.6" dominant-baseline="ideographic">Review &amp; Rating</tspan></text></g></g></g><g id="g-root-tx_skillexc_qqx66qsd43rc-fill" data-item-order="0" transform="translate(182, 38.010498046875)"><g id="tx_skillexc_qqx66qsd43rc-fill-merged" stroke="none" fill="#f4f4f4" fill-opacity="1"><g><text style="font: bold 20px Roboto, sans-serif; white-space: pre;" font-weight="bold" font-size="20px" font-family="Roboto, sans-serif"><tspan x="15.88" y="34" dominant-baseline="ideographic">Skill Exchange Platform User and Admin Flows</tspan></text></g></g></g><g id="g-root-tx_registra_1hgc39usd44xu-fill" data-item-order="0" transform="translate(56, 128.010498046875)"><g id="tx_registra_1hgc39usd44xu-fill-merged" stroke="none" fill="#f79438" fill-opacity="1"><g><text style="font: 11.7px Roboto, sans-serif; white-space: pre;" font-size="11.7px" font-family="Roboto, sans-serif"><tspan x="19.75" y="28.6" dominant-baseline="ideographic">Registration/Login</tspan></text></g></g></g><g id="g-root-cp_1-1_g-1-1_diky36sdb407-stroke" data-item-order="-387054" transform="translate(44, 122.010498046875)"></g><g id="g-root-cp_1-2_g-1-2_74fpusdb5l4-stroke" data-item-order="-387032" transform="translate(68, 170.010498046875)"></g><g id="g-root-cp_1-3_g-1-3_1ut1gnmsdb30h-stroke" data-item-order="-387010" transform="translate(32, 218.010498046875)"></g><g id="g-root-cp_1-4_g-1-4_1hhkyaasdb4le-stroke" data-item-order="-386988" transform="translate(44, 266.010498046875)"></g><g id="g-root-cp_1-5_g-1-5_146qx02sdb30j-stroke" data-item-order="-386966" transform="translate(68, 314.01055908203125)"></g><g id="g-root-cp_1-6_g-1-6_qvaemqsdb4lg-stroke" data-item-order="-386944" transform="translate(68, 362.01055908203125)"></g><g id="g-root-cp_1-7_g-1-7_hznedusdb5e5-stroke" data-item-order="-386922" transform="translate(68, 410.01055908203125)"></g><g id="g-root-cp_1-8_g-1-8_4otd3msdb3ta-stroke" data-item-order="-386900" transform="translate(56, 470.01055908203125)"></g><g id="g-root-cp_1_g-1_8zuz6sdb4lj-stroke" data-item-order="-386876" transform="translate(200, 292.0072021484375)"></g><g id="g-root-cp_start_g-start_1uuaetusdb56o-stroke" data-item-order="-386850" transform="translate(316, 278.0072021484375)"></g><g id="g-root-cp_2_g-2_1lz9vo2sdb2tl-stroke" data-item-order="-386818" transform="translate(492, 292.0072021484375)"></g><g id="g-root-cp_2-1_g-2-1_1hjgdjmsdb3lu-stroke" data-item-order="-386792" transform="translate(620, 128.010498046875)"></g><g id="g-root-cp_2-2_g-2-2_18ntdaqsdb4ej-stroke" data-item-order="-386770" transform="translate(620, 176.010498046875)"></g><g id="g-root-cp_2-3_g-2-3_v2ztsiscq0b0-stroke" data-item-order="-386748" transform="translate(620, 224.010498046875)"></g><g id="g-root-cp_2-4_g-2-4_qn6bo2scq139-stroke" data-item-order="-386726" transform="translate(620, 272.010498046875)"></g><g id="g-root-cp_2-5_g-2-5_hrjbf6scq1vy-stroke" data-item-order="-386704" transform="translate(620, 320.01055908203125)"></g><g id="g-root-cp_2-6_g-2-6_4gpa4yscq0b3-stroke" data-item-order="-386682" transform="translate(620, 368.01055908203125)"></g><g id="g-root-cp_2-7_g-2-7_1lqjbmascq2h4-stroke" data-item-order="-386660" transform="translate(620, 416.01055908203125)"></g><g id="g-root-cp_2-8_g-2-8_1hapthuscq39d-stroke" data-item-order="-386638" transform="translate(620, 464.01055908203125)"></g><g id="g-root-he_18fpac2scq0wb-stroke" data-item-order="-386611" transform="translate(286, 314.01055908203125)"><g id="he_18fpac2scq0wb-stroke" fill="none" stroke-linecap="round" stroke-linejoin="round" stroke-miterlimit="4" stroke="#ffffff" stroke-width="2" stroke-opacity="1"><g><path d="M 46 10L 10 10"></path></g></g></g><g id="g-root-he_18fpac2scq0wd-stroke" data-item-order="-386609" transform="translate(462, 314.01055908203125)"><g id="he_18fpac2scq0wd-stroke" fill="none" stroke-linecap="round" stroke-linejoin="round" stroke-miterlimit="4" stroke="#ffffff" stroke-width="2" stroke-opacity="1"><g><path d="M 10 10L 46 10"></path></g></g></g><g id="g-root-he_13zvs7mscq1on-stroke" data-item-order="-386607" transform="translate(170, 140.010498046875)"><g id="he_13zvs7mscq1on-stroke" fill="none" stroke-linecap="round" stroke-linejoin="round" stroke-miterlimit="4" stroke="#f79438" stroke-width="2" stroke-opacity="1"><g><path d="M 46 184.000061L 28 184.000061M 10 358.000061L 16 358.000061C 22.627417 358.000072 28.000001 352.627488 28.000001 346.000071L 28 22C 28.000001 15.372583 22.627417 10 16 10L 10 10M 28 58L 10 58M 28 106L 10 106M 28 154L 10 154M 28 202.000061L 10 202.000061M 28 250.000061L 10 250.000061M 28 304.000061L 10 304.000061"></path></g></g></g><g id="g-root-he_13zvs7mscq1op-stroke" data-item-order="-386605" transform="translate(590, 146.010498046875)"><g id="he_13zvs7mscq1op-stroke" fill="none" stroke-linecap="round" stroke-linejoin="round" stroke-miterlimit="4" stroke="#fb6762" stroke-width="2" stroke-opacity="1"><g><path d="M 10 178.000061L 28 178.000061M 46 10L 40 10C 33.372584 10 28 15.372583 28.000001 22L 28 334.000061C 28 340.627488 33.372584 346.000071 40.000001 346.000071L 46 346.000061M 28 58L 46 58M 28 106L 46 106M 28 154L 46 154M 28 202.000061L 46 202.000061M 28 250.000061L 46 250.000061M 28 298.000061L 46 298.000061"></path></g></g></g><g id="g-root-tx_skillexc_1ha3ceqsd89vu-stroke" data-item-order="0" transform="translate(344, 296.0072021484375)"></g><g id="g-root-tx_adminflo_dfgntesd8cna-stroke" data-item-order="0" transform="translate(508, 302.0072021484375)"></g><g id="g-root-tx_userflow_zpojv6sd6wi0-stroke" data-item-order="0" transform="translate(216, 302.0072021484375)"></g><g id="g-root-tx_swaprequ_91ikyasd5jbc-stroke" data-item-order="0" transform="translate(80, 320.01055908203125)"></g><g id="g-root-tx_handlere_zmk6fmsd9og1-stroke" data-item-order="0" transform="translate(632, 278.010498046875)"></g><g id="g-root-tx_skillmat_zmk6fmsd5h54-stroke" data-item-order="0" transform="translate(56, 272.010498046875)"></g><g id="g-root-tx_approver_qn6bo2sd9r7z-stroke" data-item-order="0" transform="translate(632, 230.010498046875)"></g><g id="g-root-tx_banrestr_145i1zmsd9oub-stroke" data-item-order="0" transform="translate(632, 326.01055908203125)"></g><g id="g-root-tx_browsese_8wis9esd5j4f-stroke" data-item-order="0" transform="translate(44, 224.010498046875)"></g><g id="g-root-tx_realtime_1hi7ij6sd5i4n-stroke" data-item-order="0" transform="translate(80, 368.01055908203125)"></g><g id="g-root-tx_monitoru_vbqh02sd8agz-stroke" data-item-order="0" transform="translate(632, 182.010498046875)"></g><g id="g-root-tx_trackswa_qvwyvmsd9pfk-stroke" data-item-order="0" transform="translate(632, 374.01055908203125)"></g><g id="g-root-tx_profilec_dl2xlesd42df-stroke" data-item-order="0" transform="translate(80, 176.010498046875)"></g><g id="g-root-tx_skillexc_1lr5spesd6x3d-stroke" data-item-order="0" transform="translate(80, 416.01055908203125)"></g><g id="g-root-tx_adminlog_dhc32qsd8bnm-stroke" data-item-order="0" transform="translate(632, 134.010498046875)"></g><g id="g-root-tx_sendnoti_zkor6asdb3m2-stroke" data-item-order="0" transform="translate(632, 422.01055908203125)"></g><g id="g-root-tx_generate_141r7gysdb4zy-stroke" data-item-order="0" transform="translate(632, 470.01055908203125)"></g><g id="g-root-tx_reviewra_18hkplesd6xom-stroke" data-item-order="0" transform="translate(68, 476.01055908203125)"></g><g id="g-root-tx_skillexc_qqx66qsd43rc-stroke" data-item-order="0" transform="translate(182, 38.010498046875)"></g><g id="g-root-tx_registra_1hgc39usd44xu-stroke" data-item-order="0" transform="translate(56, 128.010498046875)"></g></g></g><path id="w1lsex76tr94p5" d="M65.283 12.757a.35.35 0 0 0 .584.157l5.203-5.141-6.183 3.523.396 1.461zm-2.216-11.7a.35.35 0 0 0-.522.305v3.111l3.276-1.868-2.754-1.548zm3.728 2.105l-4.25 2.421v2.445l6.391-3.644-2.141-1.222zm4.708 3.303a.35.35 0 0 0 0-.609l-1.592-.9-7.365 4.199v1.782a.35.35 0 0 0 .523.305l8.435-4.777z M44.542 2.513c0-.433.355-.783.792-.783s.792.35.792.783-.355.783-.792.783-.792-.35-.792-.783zm59.171 0c0-.433.355-.783.792-.783s.792.35.792.783-.355.783-.792.783-.792-.35-.792-.783zm-85.951 7.636h-1.27v-.487c-.276.201-.864.609-1.881.609-1.202 0-2.274-.794-2.137-2.078.118-1.106 1.153-1.584 1.848-1.727l2.17-.345c0-.539-.29-.956-1.064-1.006s-1.21.305-1.571 1.017l-1.124-.605c1.218-2.631 5.029-1.764 5.029.414v4.207zm-1.27-2.86c.006.396-.062 1.112-.819 1.59-.587.37-1.841.299-1.903-.395-.049-.555.461-.791.906-.898l1.816-.297zm72.662 2.86h-1.27v-.487c-.276.201-.864.609-1.881.609-1.202 0-2.274-.794-2.137-2.078.118-1.106 1.153-1.584 1.848-1.727l2.17-.345c0-.539-.29-.956-1.064-1.006s-1.21.305-1.571 1.017l-1.124-.605c1.218-2.631 5.029-1.764 5.029.414v4.207zm-1.27-2.86c.006.396-.062 1.112-.82 1.59-.587.37-1.841.299-1.903-.395-.049-.555.461-.791.906-.898l1.816-.297zM99.096 10.149H97.85v-8.45h1.246v4.895l2.68-2.559h1.738l-2.633 2.535 2.715 3.578h-1.556l-2.077-2.707-.867.844v1.863zm6.053-6.114h-1.255v6.113h1.255V4.035zm-59.2 0h-1.255v6.113h1.255V4.035zm5.584 6.113V1.697h1.255v2.695c.361-.346 1-.485 1.47-.485 1.452 0 2.477 1.082 2.457 2.448v3.792h-1.27v-3.68c0-.408-.214-1.339-1.315-1.339-.968 0-1.342.756-1.342 1.339v3.681h-1.255zm-4.76-4.894V4.039h.621a.45.45 0 0 0 .45-.45v-.855h1.251v1.305h1.309v1.215h-1.309v3.109c0 .293.105.664.648.664.365 0 .531-.035.736-.07v1.137s-.361.113-.857.113c-1.398 0-1.777-1.051-1.777-1.788V5.254h-1.071zM36.528 4.039h-1.394l2.191 6.106h1.125l1.234-3.918 1.238 3.918h1.129l2.188-6.106h-1.383l-1.359 3.93-1.256-3.93h-1.124l-1.242 3.957-1.348-3.957zM26.212 7.141c-.02 1.566 1.187 3.129 3.223 3.129 1.566 0 2.383-.918 2.734-1.719L31.172 8c-.315.399-.801 1.094-1.738 1.094-1.145 0-1.825-.781-1.891-1.52h4.625c.074-.284.148-.995-.03-1.559-.336-1.064-1.221-2.102-2.839-2.102s-3.088 1.152-3.088 3.227zm1.363-.75h3.348c-.055-.43-.566-1.301-1.623-1.301a1.79 1.79 0 0 0-1.725 1.301zm-8.758.75c.038 1.758 1.277 3.133 3.145 3.133 1.074 0 1.723-.477 1.961-.672v.547h1.242V1.703h-1.258v2.888c-.414-.36-1.062-.68-1.93-.68-1.91 0-3.198 1.473-3.16 3.23zm1.309-.08c0 1.119.723 1.978 1.836 1.978a1.88 1.88 0 0 0 1.94-1.904c0-1.371-1.011-1.99-1.972-1.99s-1.805.798-1.805 1.916zm76.683-.028C96.771 5.275 95.532 3.9 93.664 3.9c-1.074 0-1.723.477-1.961.672v-.547h-1.242v8.22h1.258V9.583c.414.36 1.063.68 1.93.68 1.91 0 3.198-1.473 3.16-3.23zm-1.309.08c0-1.119-.723-1.978-1.836-1.978a1.88 1.88 0 0 0-1.94 1.904c0 1.371 1.011 1.99 1.972 1.99S95.5 8.231 95.5 7.113zM106.441 10.173V4.036h1.254v.382c.361-.346 1-.485 1.47-.485 1.452 0 2.477 1.082 2.457 2.448v3.792h-1.27V6.492c0-.408-.214-1.339-1.315-1.339-.969 0-1.342.756-1.342 1.339v3.681h-1.254zm-30.383-.021V1.824h1.084l4.215 5.777V1.824h1.32v8.328h-1.094l-4.207-5.796v5.796h-1.319zM5.24 10.149H4V2.377h1.014l2.664 3.597 2.654-3.592h1.03v7.766h-1.256V4.762L7.678 8.068 5.24 4.742v5.407z" transform="translate(680, 566.0000610351562)" fill="#ababab88" stroke="none"></path></svg>